G04 Layer: TopLayer*
G04 EasyEDA v6.4.20.6, 2021-08-18T22:01:06+01:00*
G04 0f83d257b5034ebfbbe3f03d496d4c61,10*
G04 Gerber Generator version 0.2*
G04 Scale: 100 percent, Rotated: No, Reflected: No *
G04 Dimensions in millimeters *
G04 leading zeros omitted , absolute positions ,4 integer and 5 decimal *
%FSLAX45Y45*%
%MOMM*%

%ADD10C,0.2540*%
%ADD11C,0.5600*%
%ADD12C,2.2000*%
%ADD13C,1.8000*%

%LPD*%
D10*
X5037048Y7378700D02*
G01*
X5018404Y7378700D01*
X4914900Y7275195D01*
X4914900Y6426200D01*
X5054600Y6286500D01*
X3378200Y8089900D02*
G01*
X3517900Y7950200D01*
X4973548Y7950200D01*
X5037048Y7886700D01*
X5037048Y7886700D02*
G01*
X5080685Y7930337D01*
X6079109Y7930337D01*
X6319799Y7689646D01*
X5719800Y7689646D02*
G01*
X5586247Y7823200D01*
X4526051Y7823200D01*
X4462551Y7886700D01*
X4462525Y7886700D02*
G01*
X2552700Y7886700D01*
X2438400Y8001000D01*
X2438400Y8166100D01*
X2616200Y8343900D01*
X2616200Y8089900D02*
G01*
X2743200Y8216900D01*
X3632200Y8216900D01*
X3829558Y8019542D01*
X4456684Y8019542D01*
X4462525Y8013700D01*
X5037074Y8013700D02*
G01*
X4871974Y8178800D01*
X3784600Y8178800D01*
X3619500Y8343900D01*
X3378200Y8343900D01*
X5037074Y7251700D02*
G01*
X5397500Y7251700D01*
X5562600Y7086600D01*
X5562600Y6286500D01*
X5037074Y7505700D02*
G01*
X5009641Y7505700D01*
X4737100Y7233158D01*
X4737100Y6286500D01*
X4546600Y6286500D01*
X5037074Y7124700D02*
G01*
X5037074Y6570726D01*
X5499100Y6108700D01*
X5892800Y6108700D01*
X6070600Y6286500D01*
D11*
X4977798Y7124700D02*
G01*
X5096299Y7124700D01*
X4977798Y7251700D02*
G01*
X5096299Y7251700D01*
X4977798Y7378700D02*
G01*
X5096299Y7378700D01*
X4977798Y7505700D02*
G01*
X5096299Y7505700D01*
X4977798Y7632700D02*
G01*
X5096299Y7632700D01*
X4977798Y7759700D02*
G01*
X5096299Y7759700D01*
X4977798Y7886700D02*
G01*
X5096299Y7886700D01*
X4977798Y8013700D02*
G01*
X5096299Y8013700D01*
X4403300Y7124700D02*
G01*
X4521801Y7124700D01*
X4403300Y7251700D02*
G01*
X4521801Y7251700D01*
X4403300Y7378700D02*
G01*
X4521801Y7378700D01*
X4403300Y7505700D02*
G01*
X4521801Y7505700D01*
X4403300Y7632700D02*
G01*
X4521801Y7632700D01*
X4403300Y7759700D02*
G01*
X4521801Y7759700D01*
X4403300Y7886700D02*
G01*
X4521801Y7886700D01*
X4403300Y8013700D02*
G01*
X4521801Y8013700D01*
D12*
G01*
X4546600Y6286500D03*
G01*
X5054600Y6286500D03*
G01*
X5562600Y6286500D03*
G01*
X6070600Y6286500D03*
D13*
G01*
X3378200Y8089900D03*
G01*
X3124200Y8089900D03*
G01*
X2870200Y8089900D03*
G01*
X2616200Y8089900D03*
G01*
X2616200Y8343900D03*
G01*
X2870200Y8343900D03*
G01*
X3124200Y8343900D03*
G01*
X3378200Y8343900D03*
X5719800Y7809621D02*
G01*
X5719800Y7569621D01*
X6319799Y7579621D02*
G01*
X6319799Y7799621D01*
X6129825Y8159953D02*
G01*
X5909825Y8159953D01*
M02*
