G04 Layer: TopSolderMaskLayer*
G04 EasyEDA v6.4.20.6, 2021-08-18T22:01:06+01:00*
G04 0f83d257b5034ebfbbe3f03d496d4c61,10*
G04 Gerber Generator version 0.2*
G04 Scale: 100 percent, Rotated: No, Reflected: No *
G04 Dimensions in millimeters *
G04 leading zeros omitted , absolute positions ,4 integer and 5 decimal *
%FSLAX45Y45*%
%MOMM*%

%ADD17C,1.9016*%
%ADD18C,0.6616*%
%ADD19C,2.3016*%
%ADD20C,2.0032*%

%LPD*%
D17*
X5719800Y7809621D02*
G01*
X5719800Y7569621D01*
X6319799Y7579621D02*
G01*
X6319799Y7799621D01*
X6129825Y8159953D02*
G01*
X5909825Y8159953D01*
D18*
X4977798Y7124700D02*
G01*
X5096299Y7124700D01*
X4977798Y7251700D02*
G01*
X5096299Y7251700D01*
X4977798Y7378700D02*
G01*
X5096299Y7378700D01*
X4977798Y7505700D02*
G01*
X5096299Y7505700D01*
X4977798Y7632700D02*
G01*
X5096299Y7632700D01*
X4977798Y7759700D02*
G01*
X5096299Y7759700D01*
X4977798Y7886700D02*
G01*
X5096299Y7886700D01*
X4977798Y8013700D02*
G01*
X5096299Y8013700D01*
X4403300Y7124700D02*
G01*
X4521801Y7124700D01*
X4403300Y7251700D02*
G01*
X4521801Y7251700D01*
X4403300Y7378700D02*
G01*
X4521801Y7378700D01*
X4403300Y7505700D02*
G01*
X4521801Y7505700D01*
X4403300Y7632700D02*
G01*
X4521801Y7632700D01*
X4403300Y7759700D02*
G01*
X4521801Y7759700D01*
X4403300Y7886700D02*
G01*
X4521801Y7886700D01*
X4403300Y8013700D02*
G01*
X4521801Y8013700D01*
D19*
G01*
X4546600Y6286500D03*
G01*
X5054600Y6286500D03*
G01*
X5562600Y6286500D03*
G01*
X6070600Y6286500D03*
D20*
G01*
X3378200Y8089900D03*
G01*
X3124200Y8089900D03*
G01*
X2870200Y8089900D03*
G01*
X2616200Y8089900D03*
G01*
X2616200Y8343900D03*
G01*
X2870200Y8343900D03*
G01*
X3124200Y8343900D03*
G01*
X3378200Y8343900D03*
M02*
