G04 Layer: TopSilkLayer*
G04 EasyEDA v6.4.20.6, 2021-08-18T22:01:06+01:00*
G04 0f83d257b5034ebfbbe3f03d496d4c61,10*
G04 Gerber Generator version 0.2*
G04 Scale: 100 percent, Rotated: No, Reflected: No *
G04 Dimensions in millimeters *
G04 leading zeros omitted , absolute positions ,4 integer and 5 decimal *
%FSLAX45Y45*%
%MOMM*%

%ADD10C,0.2540*%
%ADD14C,0.1524*%
%ADD15C,0.3000*%
%ADD16C,0.2032*%

%LPD*%
D14*
X5361177Y7036308D02*
G01*
X5355843Y7046721D01*
X5345429Y7057136D01*
X5335270Y7062215D01*
X5314441Y7062215D01*
X5304027Y7057136D01*
X5293613Y7046721D01*
X5288279Y7036308D01*
X5283200Y7020560D01*
X5283200Y6994652D01*
X5288279Y6979158D01*
X5293613Y6968744D01*
X5304027Y6958329D01*
X5314441Y6953250D01*
X5335270Y6953250D01*
X5345429Y6958329D01*
X5355843Y6968744D01*
X5361177Y6979158D01*
X5395468Y7062215D02*
G01*
X5395468Y6953250D01*
X5395468Y7062215D02*
G01*
X5468111Y6953250D01*
X5468111Y7062215D02*
G01*
X5468111Y6953250D01*
X5502402Y7041387D02*
G01*
X5512815Y7046721D01*
X5528309Y7062215D01*
X5528309Y6953250D01*
X6418300Y7053618D02*
G01*
X6418300Y7162584D01*
X6418300Y7053618D02*
G01*
X6381978Y7053618D01*
X6366230Y7058698D01*
X6356070Y7069112D01*
X6350736Y7079526D01*
X6345656Y7095274D01*
X6345656Y7121182D01*
X6350736Y7136676D01*
X6356070Y7147090D01*
X6366230Y7157504D01*
X6381978Y7162584D01*
X6418300Y7162584D01*
X6233388Y7079526D02*
G01*
X6238468Y7069112D01*
X6248882Y7058698D01*
X6259296Y7053618D01*
X6280124Y7053618D01*
X6290538Y7058698D01*
X6300952Y7069112D01*
X6306032Y7079526D01*
X6311366Y7095274D01*
X6311366Y7121182D01*
X6306032Y7136676D01*
X6300952Y7147090D01*
X6290538Y7157504D01*
X6280124Y7162584D01*
X6259296Y7162584D01*
X6248882Y7157504D01*
X6238468Y7147090D01*
X6233388Y7136676D01*
X6193764Y7079526D02*
G01*
X6193764Y7074446D01*
X6188684Y7064032D01*
X6183350Y7058698D01*
X6173190Y7053618D01*
X6152362Y7053618D01*
X6141948Y7058698D01*
X6136614Y7064032D01*
X6131534Y7074446D01*
X6131534Y7084860D01*
X6136614Y7095274D01*
X6147028Y7110768D01*
X6199098Y7162584D01*
X6126200Y7162584D01*
X2997200Y5790184D02*
G01*
X2997200Y5868162D01*
X2992120Y5883655D01*
X2981706Y5894070D01*
X2965958Y5899150D01*
X2955543Y5899150D01*
X2940050Y5894070D01*
X2929636Y5883655D01*
X2924556Y5868162D01*
X2924556Y5790184D01*
X2890265Y5811012D02*
G01*
X2879852Y5805678D01*
X2864104Y5790184D01*
X2864104Y5899150D01*
D16*
X3378200Y7385558D02*
G01*
X3378200Y7506970D01*
X3378200Y7385558D02*
G01*
X3303270Y7385558D01*
X3378200Y7443470D02*
G01*
X3331972Y7443470D01*
X3378200Y7506970D02*
G01*
X3303270Y7506970D01*
X3184143Y7402829D02*
G01*
X3195827Y7391400D01*
X3213100Y7385558D01*
X3236213Y7385558D01*
X3253486Y7391400D01*
X3265170Y7402829D01*
X3265170Y7414513D01*
X3259327Y7425944D01*
X3253486Y7431786D01*
X3242056Y7437628D01*
X3207258Y7449058D01*
X3195827Y7454900D01*
X3189986Y7460742D01*
X3184143Y7472171D01*
X3184143Y7489444D01*
X3195827Y7501128D01*
X3213100Y7506970D01*
X3236213Y7506970D01*
X3253486Y7501128D01*
X3265170Y7489444D01*
X3146043Y7385558D02*
G01*
X3146043Y7506970D01*
X3146043Y7385558D02*
G01*
X3094227Y7385558D01*
X3076956Y7391400D01*
X3071113Y7397242D01*
X3065272Y7408671D01*
X3065272Y7425944D01*
X3071113Y7437628D01*
X3076956Y7443470D01*
X3094227Y7449058D01*
X3146043Y7449058D01*
X3027172Y7454900D02*
G01*
X2923286Y7454900D01*
X2850641Y7385558D02*
G01*
X2867913Y7391400D01*
X2879343Y7408671D01*
X2885186Y7437628D01*
X2885186Y7454900D01*
X2879343Y7483855D01*
X2867913Y7501128D01*
X2850641Y7506970D01*
X2838958Y7506970D01*
X2821686Y7501128D01*
X2810256Y7483855D01*
X2804413Y7454900D01*
X2804413Y7437628D01*
X2810256Y7408671D01*
X2821686Y7391400D01*
X2838958Y7385558D01*
X2850641Y7385558D01*
X2766313Y7408671D02*
G01*
X2754629Y7402829D01*
X2737358Y7385558D01*
X2737358Y7506970D01*
X2618486Y7402829D02*
G01*
X2630170Y7391400D01*
X2647441Y7385558D01*
X2670556Y7385558D01*
X2687827Y7391400D01*
X2699258Y7402829D01*
X2699258Y7414513D01*
X2693670Y7425944D01*
X2687827Y7431786D01*
X2676143Y7437628D01*
X2641600Y7449058D01*
X2630170Y7454900D01*
X2624327Y7460742D01*
X2618486Y7472171D01*
X2618486Y7489444D01*
X2630170Y7501128D01*
X2647441Y7506970D01*
X2670556Y7506970D01*
X2687827Y7501128D01*
X2699258Y7489444D01*
D14*
X4228084Y7543800D02*
G01*
X4306061Y7543800D01*
X4321556Y7548879D01*
X4331970Y7559294D01*
X4337050Y7575042D01*
X4337050Y7585455D01*
X4331970Y7600950D01*
X4321556Y7611363D01*
X4306061Y7616444D01*
X4228084Y7616444D01*
X4228084Y7661147D02*
G01*
X4228084Y7718297D01*
X4269740Y7687310D01*
X4269740Y7702804D01*
X4274820Y7713218D01*
X4279900Y7718297D01*
X4295647Y7723631D01*
X4306061Y7723631D01*
X4321556Y7718297D01*
X4331970Y7707884D01*
X4337050Y7692389D01*
X4337050Y7676895D01*
X4331970Y7661147D01*
X4326890Y7656068D01*
X4316475Y7650734D01*
D10*
X4291601Y6887103D02*
G01*
X4292600Y5753100D01*
X4292600Y5753100D02*
G01*
X6324600Y5753100D01*
X6324600Y5753100D02*
G01*
X6324600Y6887100D01*
X4292600Y6743700D02*
G01*
X6324600Y6743700D01*
X4292600Y6057900D02*
G01*
X6324600Y6057900D01*
X6324600Y6887103D02*
G01*
X4291601Y6887103D01*
X7122604Y7245134D02*
G01*
X5681776Y7245134D01*
X7122607Y7244295D02*
G01*
X7122604Y8144291D01*
X6794525Y7245134D02*
G01*
X6794525Y8145132D01*
X5681776Y7245134D02*
G01*
X5681776Y7463119D01*
X5681776Y7916148D02*
G01*
X5681776Y8144291D01*
X7122604Y8144291D02*
G01*
X6241844Y8144291D01*
X5797806Y8144291D02*
G01*
X5681776Y8144291D01*
X3759200Y8470900D02*
G01*
X2260600Y8470900D01*
X2235200Y8470900D02*
G01*
X2235200Y6057900D01*
X2235200Y6057900D02*
G01*
X2235200Y5930900D01*
X3759200Y5930900D01*
X3759200Y8470900D01*
X3505200Y6819900D02*
G01*
X3505200Y6184900D01*
X3378200Y6184900D01*
X3378200Y6438900D01*
X3251200Y6438900D01*
X3251200Y6184900D01*
X3124200Y6184900D01*
X3124200Y6438900D01*
X2997200Y6438900D01*
X2997200Y6184900D01*
X2616200Y6184900D01*
D14*
X4926939Y7061580D02*
G01*
X4572660Y7061580D01*
X4572660Y8076819D01*
X4926939Y8076819D01*
X4926939Y7061580D01*
D15*
G75*
G01
X4866716Y7124700D02*
G03X4866716Y7124700I-15011J0D01*
G75*
G01
X5052060Y7051472D02*
G03X5052060Y7051472I-15011J0D01*
M02*
